<svg t="1692342763038" class="icon" viewBox="0 0 1024 1024" version="1.1" xmlns="http://www.w3.org/2000/svg" p-id="1297" xmlns:xlink="http://www.w3.org/1999/xlink" width="200" height="200"><path d="M404.50472 356.556347H241.339897A185.490445 185.490445 0 0 1 149.220627 334.022075 172.032477 172.032477 0 0 1 59.70949 211.961433 172.241127 172.241127 0 0 1 113.958664 46.918754 165.564306 165.564306 0 0 1 215.362889 1.641559C241.757198-0.757924 268.151508 0.181004 294.545818 0.181004Q532.303255 0.181004 769.852041 0.702631A210.006898 210.006898 0 0 1 986.11846 197.460212a199.365714 199.365714 0 0 1-61.343297 162.33022Q782.162431 503.446418 638.715096 646.372126c-6.363845 6.363845-12.936341 12.51904-19.508838 18.882886a10.432533 10.432533 0 0 0 9.389281 2.295157h154.714471a184.968818 184.968818 0 0 1 120.28711 40.791206 178.396322 178.396322 0 0 1 49.86751 208.650669 174.327634 174.327634 0 0 1-132.701825 104.325334 152.106338 152.106338 0 0 1-29.211094 2.608134H247.599417a197.174882 197.174882 0 0 1-154.192844-67.707142C40.722279 896.335628 23.612924 826.95928 47.190449 749.132581a205.103608 205.103608 0 0 1 52.162668-85.859751c29.106768-29.211094 58.109211-58.630838 87.737606-87.320305 22.429947-21.491019 43.81664-44.129616 65.829286-66.142262 23.577526-23.577526 47.363702-46.946401 71.045553-70.523926 26.081334-25.872683 52.162667-52.162667 77.931025-77.722374a5.424917 5.424917 0 0 0 2.608133-5.007616z m176.20549 157.739906l1.356229 0.834602 6.363846-6.050869 45.38152-45.38152 199.052738-198.844088a73.027734 73.027734 0 0 0 22.116971-49.763185 80.121857 80.121857 0 0 0-80.434833-82.312688c-152.627964 1.147579-305.255929 0-457.883893 0h-84.50352a44.546918 44.546918 0 0 0-39.017676 62.5952 45.38152 45.38152 0 0 0 44.338268 26.915937H641.844856c10.432533 0 11.058485 0 8.346027 10.95416q-8.346027 37.139819-17.630982 72.923408l-45.068544 179.230925c-2.399483 9.597931-4.590315 19.300187-6.781147 28.898118z m-136.248887-4.903291a9.806581 9.806581 0 0 0-6.572496 4.173013Q314.367631 636.565545 190.95076 760.504042a77.305073 77.305073 0 0 0-1.56488 104.325335 78.348326 78.348326 0 0 0 61.551948 26.60296h543.117691a44.755568 44.755568 0 0 0 38.600374-60.195718 45.38152 45.38152 0 0 0-43.816641-29.837046H382.179098c-10.432533 0-10.432533 0-7.720074-10.432533l13.770944-55.605403q16.900704-67.498491 33.592758-135.205634c7.511424-29.941371 14.918523-59.882742 22.638597-90.763041z" p-id="1298"></path></svg>